# Blender v2.90.1 OBJ File: ''
# www.blender.org
o Cylinder
v -1.000000 -0.120000 -0.207846
v 1.000000 -0.120000 -0.207846
v -1.000000 -0.120000 0.207846
v 1.000000 -0.120000 0.207846
v -1.000000 0.240000 -0.000000
v 1.000000 0.240000 -0.000000
v -0.800000 -0.100000 0.173205
v -0.800000 0.200000 -0.000000
v -0.800000 -0.100000 -0.173205
v 0.800000 -0.100000 -0.173205
v 0.800000 -0.100000 0.173205
v 0.800000 0.200000 -0.000000
v 0.833333 -0.120000 -0.207846
v 0.833333 -0.120000 0.207846
v 0.833333 0.240000 -0.000000
v -0.833333 -0.120000 0.207846
v -0.833333 0.240000 -0.000000
v -0.833333 -0.120000 -0.207846
vt 0.200029 0.989979
vt 0.200029 0.996358
vt 0.133741 0.996358
vt 0.133741 0.989979
vt 0.067453 0.996358
vt 0.067453 0.989979
vt 0.097803 0.927076
vt 0.084025 0.950940
vt 0.070248 0.927076
vt 0.001166 0.996358
vt 0.001166 0.989979
vt 0.117169 0.950940
vt 0.130947 0.927076
vt 0.103391 0.927076
vt 0.067453 0.982219
vt 0.001166 0.982219
vt 0.001166 0.920986
vt 0.067453 0.920986
vt 0.133741 0.982219
vt 0.133741 0.920986
vt 0.200029 0.920986
vt 0.200029 0.982219
vt 0.200029 0.913226
vt 0.133741 0.913226
vt 0.067453 0.913226
vt 0.001166 0.913226
vt 0.067453 0.906847
vt 0.001166 0.906847
vt 0.133741 0.906847
vt 0.200029 0.906847
vn -0.0000 -1.0000 0.0000
vn -0.0000 0.5000 0.8660
vn 1.0000 0.0000 0.0000
vn -0.0000 0.5000 -0.8660
vn -1.0000 0.0000 0.0000
vn 0.5145 -0.8575 -0.0000
vn 0.5145 0.4287 0.7426
vn 0.5145 0.4287 -0.7426
vn -0.5145 0.4287 -0.7426
vn -0.5145 0.4287 0.7426
vn -0.5145 -0.8575 -0.0000
s off
f 13/1/1 2/2/1 4/3/1 14/4/1
f 14/4/2 4/3/2 6/5/2 15/6/2
f 4/7/3 2/8/3 6/9/3
f 15/6/4 6/5/4 2/10/4 13/11/4
f 1/12/5 3/13/5 5/14/5
f 12/15/4 10/16/4 9/17/4 8/18/4
f 11/19/2 12/15/2 8/18/2 7/20/2
f 9/21/1 10/22/1 11/19/1 7/20/1
f 18/23/6 9/21/6 7/20/6 16/24/6
f 16/24/7 7/20/7 8/18/7 17/25/7
f 17/25/8 8/18/8 9/17/8 18/26/8
f 12/15/9 15/6/9 13/11/9 10/16/9
f 11/19/10 14/4/10 15/6/10 12/15/10
f 10/22/11 13/1/11 14/4/11 11/19/11
f 5/27/4 17/25/4 18/26/4 1/28/4
f 3/29/2 16/24/2 17/25/2 5/27/2
f 1/30/1 18/23/1 16/24/1 3/29/1
