{"asset":{"version":"2.0","generator":"THREE.GLTFExporter"},"scenes":[{"name":"AuxScene","nodes":[0]}],"scene":0,"nodes":[{"mesh":0}],"bufferViews":[{"buffer":0,"byteOffset":0,"byteLength":10944,"target":34962,"byteStride":12},{"buffer":0,"byteOffset":10944,"byteLength":10944,"target":34962,"byteStride":12},{"buffer":0,"byteOffset":21888,"byteLength":10944,"target":34962,"byteStride":12},{"buffer":0,"byteOffset":32832,"byteLength":7296,"target":34962,"byteStride":8},{"buffer":0,"byteOffset":40128,"byteLength":1824,"target":34963}],"buffers":[{"byteLength":41952,"uri":"data:application/octet-stream;base64,"}],"accessors":[{"bufferView":0,"componentType":5126,"count":912,"max":[16,8.001638412475586,2],"min":[-2,-6,-17.66455078125],"type":"VEC3"},{"bufferView":1,"componentType":5126,"count":912,"max":[1,1,1],"min":[-1,-0.0012228676350787282,-8.881784197001252e-16],"type":"VEC3"},{"bufferView":2,"componentType":5126,"count":912,"max":[1,1,1],"min":[1,1,1],"type":"VEC3"},{"bufferView":3,"componentType":5126,"count":912,"max":[1,1],"min":[0,0],"type":"VEC2"},{"bufferView":4,"componentType":5123,"count":912,"max":[911],"min":[0],"type":"SCALAR"}],"materials":[{"pbrMetallicRoughness":{"metallicFactor":0,"roughnessFactor":0.9,"baseColorTexture":{"index":0}},"extensions":{"KHR_materials_unlit":{}},"alphaMode":"MASK","alphaCutoff":0.01}],"textures":[{"sampler":0,"source":0}],"samplers":[{"magFilter":9728,"minFilter":9728,"wrapS":33071,"wrapT":33071}],"images":[{"mimeType":"image/png","uri":"data:image/png;base64,"}],"meshes":[{"primitives":[{"mode":4,"attributes":{"POSITION":0,"NORMAL":1,"COLOR_0":2,"TEXCOORD_0":3},"indices":4,"material":0}]}],"extensionsUsed":["KHR_materials_unlit"]}