# Blender v2.90.1 OBJ File: ''
# www.blender.org
mtllib Computer.mtl
o Cube_Cube.002
v -1.000000 -1.000000 1.000000
v -1.000000 1.000000 -0.394848
v -1.000000 -1.000000 -1.000000
v -1.000000 1.000000 -1.000000
v 1.000000 -1.000000 1.000000
v 1.000000 1.000000 -0.394848
v 1.000000 -1.000000 -1.000000
v 1.000000 1.000000 -1.000000
v -1.000000 3.000000 -0.394848
v -1.000000 3.000000 -1.000000
v 1.000000 3.000000 -1.000000
v 1.000000 3.000000 -0.394848
v -1.000000 -1.000000 -0.500000
v -1.000000 1.000000 -0.500000
v 1.000000 -1.000000 -0.500000
v 1.000000 1.000000 -0.500000
v -1.000000 3.000000 -0.500000
v 1.000000 3.000000 -0.500000
v -1.000000 0.700000 1.000000
v -1.000000 0.700000 -1.000000
v 1.000000 0.700000 -1.000000
v 1.000000 0.700000 1.000000
v 1.000000 0.700000 -0.500000
v -1.000000 0.700000 -0.500000
vt 0.647821 0.250097
vt 0.647821 0.253736
vt 0.635692 0.253736
vt 0.635692 0.250097
vt 0.547650 0.121778
vt 0.547650 0.126342
vt 0.486801 0.126342
vt 0.486801 0.121778
vt 0.586888 0.540031
vt 0.587544 0.561083
vt 0.573214 0.561131
vt 0.376279 0.539874
vt 0.985558 0.263882
vt 0.985558 0.494524
vt 0.014442 0.494524
vt 0.014442 0.263882
vt 0.570183 0.077925
vt 0.570183 0.173997
vt 0.426075 0.173997
vt 0.426075 0.077925
vt 0.728973 0.263229
vt 0.746263 0.263171
vt 0.748347 0.301031
vt 0.730169 0.301617
vt 0.892063 0.233729
vt 0.932760 0.233729
vt 0.932760 0.264252
vt 0.892063 0.264252
vt 0.650372 0.253736
vt 0.650372 0.277996
vt 0.647821 0.277996
vt 0.021428 0.510113
vt 0.978572 0.510113
vt 0.978572 0.988685
vt 0.021428 0.988685
vt 0.547650 0.156766
vt 0.486801 0.156766
vt 0.635692 0.277996
vt 0.625000 0.500000
vt 0.875000 0.500000
vt 0.875000 0.562500
vt 0.625000 0.562500
vt 0.954636 0.259685
vt 0.968965 0.259637
vt 0.973605 0.408538
vt 0.958527 0.409023
vt 0.618219 0.077925
vt 0.618219 0.173997
vt 0.745968 0.257815
vt 0.728804 0.257802
vt 0.684210 0.250097
vt 0.684210 0.229477
vt 0.647821 0.229477
vt 0.744377 0.228895
vt 0.727891 0.228520
vt 0.977598 0.009022
vt 0.977598 0.240372
vt 0.022402 0.240372
vt 0.022402 0.009022
vt 0.674507 0.257761
vt 0.675857 0.227337
vt 0.547650 0.095917
vt 0.486801 0.095917
vt 0.635692 0.229477
vn -1.0000 0.0000 0.0000
vn 0.0000 0.0000 -1.0000
vn 1.0000 0.0000 0.0000
vn 0.0000 0.9776 0.2103
vn 0.0000 -1.0000 0.0000
vn 0.0000 1.0000 0.0000
vn 0.0000 0.0000 1.0000
usemtl Material.001
s off
f 24/1/1 14/2/1 4/3/1 20/4/1
f 20/5/2 4/6/2 8/7/2 21/8/2
f 23/9/3 16/10/3 6/11/3 22/12/3
f 22/13/4 6/14/4 2/15/4 19/16/4
f 13/17/5 15/18/5 5/19/5 1/20/5
f 16/21/3 8/22/3 11/23/3 18/24/3
f 18/25/6 17/26/6 9/27/6 12/28/6
f 14/2/1 2/29/1 9/30/1 17/31/1
f 2/32/7 6/33/7 12/34/7 9/35/7
f 8/7/2 4/6/2 10/36/2 11/37/2
f 4/3/1 14/2/1 17/31/1 10/38/1
f 11/39/6 10/40/6 17/41/6 18/42/6
f 6/43/3 16/44/3 18/45/3 12/46/3
f 3/47/5 7/48/5 15/18/5 13/17/5
f 21/49/3 8/22/3 16/21/3 23/50/3
f 19/51/1 2/29/1 14/2/1 24/1/1
f 1/52/1 19/51/1 24/1/1 13/53/1
f 7/54/3 21/49/3 23/50/3 15/55/3
f 5/56/7 22/57/7 19/58/7 1/59/7
f 15/55/3 23/50/3 22/60/3 5/61/3
f 3/62/2 20/5/2 21/8/2 7/63/2
f 13/53/1 24/1/1 20/4/1 3/64/1
