# Blender v2.90.1 OBJ File: 'tile.blend'
# www.blender.org
mtllib Pipe.mtl
o Cylinder
v 0.000000 1.000000 -1.000000
v -0.000000 1.051867 1.000000
v 0.587785 0.809017 -1.000000
v 0.644483 0.842462 1.000000
v 0.951057 0.309017 -1.000000
v 1.042795 0.294232 1.000000
v -0.951056 0.309017 -1.000000
v -1.042795 0.294232 1.000000
v -0.587785 0.809017 -1.000000
v -0.644482 0.842462 1.000000
v 0.951056 0.000000 -1.000000
v 1.042795 -0.003617 1.000000
v -0.951056 0.000000 -1.000000
v -1.042795 -0.003617 1.000000
v -0.000000 1.051867 0.800000
v 0.644483 0.842462 0.800000
v 1.042795 0.294232 0.800000
v -1.042795 0.294232 0.800000
v -0.644482 0.842462 0.800000
v 1.042795 -0.003617 0.800000
v -1.042795 -0.003617 0.800000
v 0.587785 0.809017 0.792151
v 0.951057 0.309017 0.792151
v -0.951056 0.309017 0.792151
v -0.587785 0.809017 0.792151
v 0.951056 -0.000000 0.792151
v -0.951056 -0.000000 0.792151
v 0.000000 1.000000 0.792151
vt 1.000000 0.950000
vt 1.000000 1.000000
vt 0.900000 1.000000
vt 0.900000 0.950000
vt 0.800000 1.000000
vt 0.800000 0.950000
vt 0.250000 0.950000
vt 0.250000 1.000000
vt 0.200000 1.000000
vt 0.200000 0.950000
vt 0.391068 0.444164
vt 0.250000 0.490000
vt 0.108932 0.444164
vt 0.021746 0.324164
vt 0.021746 0.250000
vt 0.478254 0.250000
vt 0.478254 0.324164
vt 0.100000 1.000000
vt 0.100000 0.950000
vt -0.000000 1.000000
vt -0.000000 0.950000
vt 0.750000 0.490000
vt 0.891068 0.444164
vt 0.978254 0.324164
vt 0.978254 0.250000
vt 0.521746 0.250000
vt 0.521746 0.324164
vt 0.608932 0.444164
vt 0.750000 1.000000
vt 0.750000 0.950000
vt 0.800000 0.948038
vt 0.750000 0.948038
vt 0.100000 0.948038
vt -0.000000 0.948038
vt 0.200000 0.948038
vt 0.250000 0.948038
vt 0.900000 0.948038
vt 1.000000 0.948038
vt 1.000000 0.500000
vt 0.900000 0.500000
vt 0.800000 0.500000
vt 0.250000 0.500000
vt 0.200000 0.500000
vt 0.100000 0.500000
vt -0.000000 0.500000
vt 0.750000 0.500000
vn 0.3090 0.9511 0.0000
vn 0.8090 0.5878 0.0000
vn -1.0000 0.0000 0.0000
vn -0.0000 0.0000 1.0000
vn -0.8090 0.5878 0.0000
vn -0.3090 0.9511 0.0000
vn 0.0000 0.0000 -1.0000
vn 1.0000 -0.0000 0.0000
vn 0.0853 -0.0000 -0.9964
vn -0.0486 0.1495 -0.9876
vn -0.0962 0.0699 -0.9929
vn -0.0853 -0.0000 -0.9964
vn 0.0962 0.0699 -0.9929
vn 0.0486 0.1495 -0.9876
usemtl None
s off
f 15/1/1 2/2/1 4/3/1 16/4/1
f 16/4/2 4/3/2 6/5/2 17/6/2
f 21/7/3 14/8/3 8/9/3 18/10/3
f 4/11/4 2/12/4 10/13/4 8/14/4 14/15/4 12/16/4 6/17/4
f 18/10/5 8/9/5 10/18/5 19/19/5
f 19/19/6 10/18/6 2/20/6 15/21/6
f 1/22/7 3/23/7 5/24/7 11/25/7 13/26/7 7/27/7 9/28/7
f 17/6/8 6/5/8 12/29/8 20/30/8
f 23/31/9 17/6/9 20/30/9 26/32/9
f 25/33/10 19/19/10 15/21/10 28/34/10
f 24/35/11 18/10/11 19/19/11 25/33/11
f 27/36/12 21/7/12 18/10/12 24/35/12
f 22/37/13 16/4/13 17/6/13 23/31/13
f 28/38/14 15/1/14 16/4/14 22/37/14
f 1/39/1 28/38/1 22/37/1 3/40/1
f 3/40/2 22/37/2 23/31/2 5/41/2
f 13/42/3 27/36/3 24/35/3 7/43/3
f 7/43/5 24/35/5 25/33/5 9/44/5
f 9/44/6 25/33/6 28/34/6 1/45/6
f 5/41/8 23/31/8 26/32/8 11/46/8
