# Blender v2.90.1 OBJ File: 'Pipe2.blend'
# www.blender.org
mtllib Pipe2.mtl
o Cylinder
v 1.000000 -1.000000 1.000000
v 0.900000 -1.000000 -1.000000
v 0.500000 -0.133975 1.000000
v 0.450000 -0.220577 -1.000000
v -0.500000 -0.133975 1.000000
v -0.450000 -0.220577 -1.000000
v -1.000000 -1.000000 1.000000
v -0.900000 -1.000000 -1.000000
v 1.000000 -1.000000 0.800000
v 0.500000 -0.133975 0.800000
v -0.500000 -0.133975 0.800000
v -1.000000 -1.000000 0.800000
v 0.900000 -1.000000 0.800000
v 0.450000 -0.220577 0.800000
v -0.450000 -0.220577 0.800000
v -0.900000 -1.000000 0.800000
vt 1.000000 0.550000
vt 1.000000 1.000000
vt 0.833333 1.000000
vt 0.833333 0.550000
vt 0.666667 1.000000
vt 0.666667 0.550000
vt 0.500000 1.000000
vt 0.500000 0.550000
vt 0.457846 0.370000
vt 0.250000 0.490000
vt 0.250000 0.010000
vt 0.457846 0.130000
vt 0.666667 0.500000
vt 0.666667 0.550000
vt 0.500000 0.550000
vt 0.500000 0.500000
vt 0.833333 0.500000
vt 0.833333 0.550000
vt 1.000000 0.500000
vt 1.000000 0.550000
vt 0.750000 0.010000
vt 0.750000 0.490000
vt 0.957846 0.370000
vt 0.957846 0.130000
vn 0.8660 0.5000 0.0000
vn -0.0000 1.0000 0.0000
vn -0.8660 0.5000 -0.0000
vn 0.0000 -0.0000 -1.0000
vn 0.0000 -0.0000 1.0000
usemtl None
s off
f 13/1/1 2/2/1 4/3/1 14/4/1
f 14/4/2 4/3/2 6/5/2 15/6/2
f 15/6/3 6/5/3 8/7/3 16/8/3
f 4/9/4 2/10/4 8/11/4 6/12/4
f 5/13/3 11/14/3 12/15/3 7/16/3
f 3/17/2 10/18/2 11/14/2 5/13/2
f 1/19/1 9/20/1 10/18/1 3/17/1
f 11/14/4 15/6/4 16/8/4 12/15/4
f 10/18/4 14/4/4 15/6/4 11/14/4
f 9/20/4 13/1/4 14/4/4 10/18/4
f 7/21/5 1/22/5 3/23/5 5/24/5
